%
M48
M72
T01C0.02400
T02C0.03200
T03C0.03937
T04C0.04000
T05C0.12598
%
T01
X101800Y76000
X120300Y54000
X97800Y245000
T02
X79300Y260000
X119300Y260000
T03
X116800Y270000
X106800Y270000
X96800Y270000
X96800Y280000
X106800Y280000
X116800Y280000
X126800Y280000
X136800Y280000
X146800Y280000
X156800Y280000
X166800Y280000
X176800Y280000
X186800Y280000
X196800Y280000
X206800Y280000
X216800Y280000
X226800Y280000
X236800Y280000
X246800Y280000
X256800Y280000
X266800Y280000
X276800Y280000
X286800Y280000
X296800Y280000
X306800Y280000
X316800Y280000
X326800Y280000
X336800Y280000
X336800Y270000
X326800Y270000
X316800Y270000
X306800Y270000
X296800Y270000
X286800Y270000
X276800Y270000
X266800Y270000
X256800Y270000
X246800Y270000
X236800Y270000
X226800Y270000
X216800Y270000
X206800Y270000
X196800Y270000
X186800Y270000
X176800Y270000
X166800Y270000
X156800Y270000
X146800Y270000
X136800Y270000
X126800Y270000
X86800Y250000
X86800Y240000
X86800Y230000
X86800Y220000
X86800Y210000
X76800Y210000
X76800Y220000
X76800Y230000
X76800Y240000
X76800Y250000
X96800Y70000
X96800Y60000
X106800Y60000
X116800Y60000
X116800Y70000
X106800Y70000
X126800Y70000
X136800Y70000
X146800Y70000
X146800Y60000
X136800Y60000
X126800Y60000
X156800Y60000
X166800Y60000
X166800Y70000
X156800Y70000
X176800Y70000
X186800Y70000
X186800Y60000
X176800Y60000
X196800Y60000
X206800Y60000
X206800Y70000
X196800Y70000
X216800Y70000
X226800Y70000
X236800Y70000
X236800Y60000
X226800Y60000
X216800Y60000
X246800Y60000
X256800Y60000
X256800Y70000
X246800Y70000
X266800Y70000
X276800Y70000
X276800Y60000
X266800Y60000
X286800Y60000
X296800Y60000
X296800Y70000
X286800Y70000
X306800Y70000
X316800Y70000
X326800Y70000
X326800Y60000
X316800Y60000
X306800Y60000
X336800Y60000
X336800Y70000
T04
X339300Y145000
X349300Y145000
X329300Y145000
X294300Y160000
X284300Y160000
X274300Y160000
X256800Y160000
X246800Y160000
X236800Y160000
X211800Y160000
X201800Y160000
X191800Y160000
X164300Y160000
X154300Y160000
X144300Y160000
X129300Y160000
X119300Y160000
X109300Y160000
X121800Y185000
X131800Y185000
X141800Y185000
X151800Y185000
X161800Y185000
X171800Y185000
X181800Y185000
X191800Y185000
X139300Y295000
X129300Y295000
X119300Y295000
X109300Y295000
X99300Y295000
X89300Y295000
X89300Y45000
X99300Y45000
X109300Y45000
X129300Y45000
X139300Y45000
X149300Y45000
X169300Y45000
X179300Y45000
X189300Y45000
T05
X76800Y60000
X76800Y280000
X356800Y280000
X356800Y60000
M30
