G75*
%MOIN*%
%OFA0B0*%
%FSLAX25Y25*%
%IPPOS*%
%LPD*%
%AMOC8*
5,1,8,0,0,1.08239X$1,22.5*
%
%ADD10C,0.01100*%
%ADD11C,0.00600*%
%ADD12C,0.00500*%
%ADD13C,0.03000*%
%ADD14R,0.03000X0.02000*%
%ADD15R,0.03000X0.04000*%
%ADD16R,0.03400X0.02400*%
%ADD17C,0.01600*%
D10*
X0207350Y0210550D02*
X0215957Y0210550D01*
X0220241Y0212702D02*
X0222393Y0210550D01*
X0226697Y0210550D01*
X0228848Y0212702D01*
X0228848Y0221309D01*
X0226697Y0223461D01*
X0222393Y0223461D01*
X0220241Y0221309D01*
X0220241Y0212702D01*
X0207350Y0210550D02*
X0207350Y0223461D01*
X0222350Y0240550D02*
X0222350Y0253461D01*
X0228806Y0253461D01*
X0230957Y0251309D01*
X0230957Y0247006D01*
X0228806Y0244854D01*
X0222350Y0244854D01*
X0226654Y0244854D02*
X0230957Y0240550D01*
X0235241Y0242702D02*
X0237393Y0240550D01*
X0241697Y0240550D01*
X0243848Y0242702D01*
X0243848Y0247006D01*
X0241697Y0249157D01*
X0237393Y0249157D01*
X0235241Y0247006D01*
X0235241Y0242702D01*
X0248132Y0240550D02*
X0248132Y0253461D01*
X0248132Y0249157D02*
X0254588Y0249157D01*
X0256739Y0247006D01*
X0256739Y0242702D01*
X0254588Y0240550D01*
X0248132Y0240550D01*
X0261023Y0240550D02*
X0269630Y0240550D01*
X0273914Y0240550D02*
X0278218Y0240550D01*
X0276066Y0240550D02*
X0276066Y0249157D01*
X0273914Y0249157D01*
X0276066Y0253461D02*
X0276066Y0255613D01*
X0282508Y0249157D02*
X0288964Y0249157D01*
X0291115Y0247006D01*
X0291115Y0242702D01*
X0288964Y0240550D01*
X0282508Y0240550D01*
X0282508Y0236246D02*
X0282508Y0249157D01*
X0295399Y0247006D02*
X0295399Y0242702D01*
X0297551Y0240550D01*
X0301855Y0240550D01*
X0304006Y0242702D01*
X0304006Y0244854D01*
X0301855Y0247006D01*
X0295399Y0247006D01*
X0299703Y0251309D01*
X0304006Y0253461D01*
X0306194Y0223461D02*
X0297587Y0223461D01*
X0297587Y0210550D01*
X0306194Y0210550D01*
X0310478Y0210550D02*
X0319085Y0210550D01*
X0310478Y0210550D02*
X0310478Y0223461D01*
X0301891Y0217006D02*
X0297587Y0217006D01*
X0293303Y0214854D02*
X0293303Y0223461D01*
X0284696Y0223461D02*
X0284696Y0214854D01*
X0289000Y0210550D01*
X0293303Y0214854D01*
X0280412Y0210550D02*
X0271805Y0210550D01*
X0271805Y0223461D01*
X0280412Y0223461D01*
X0276109Y0217006D02*
X0271805Y0217006D01*
X0267521Y0210550D02*
X0258914Y0210550D01*
X0258914Y0223461D01*
X0241739Y0223461D02*
X0241739Y0210550D01*
X0237436Y0214854D01*
X0233132Y0210550D01*
X0233132Y0223461D01*
X0261023Y0240550D02*
X0261023Y0253461D01*
D11*
X0196800Y0187500D02*
X0194300Y0190000D01*
X0189300Y0190000D01*
X0186800Y0187500D01*
X0186800Y0182500D01*
X0189300Y0180000D01*
X0194300Y0180000D01*
X0196800Y0182500D01*
X0196800Y0187500D01*
X0186800Y0187500D02*
X0184300Y0190000D01*
X0179300Y0190000D01*
X0176800Y0187500D01*
X0176800Y0182500D01*
X0179300Y0180000D01*
X0184300Y0180000D01*
X0186800Y0182500D01*
X0176800Y0182500D02*
X0174300Y0180000D01*
X0169300Y0180000D01*
X0166800Y0182500D01*
X0164300Y0180000D01*
X0159300Y0180000D01*
X0156800Y0182500D01*
X0154300Y0180000D01*
X0149300Y0180000D01*
X0146800Y0182500D01*
X0144300Y0180000D01*
X0139300Y0180000D01*
X0136800Y0182500D01*
X0134300Y0180000D01*
X0129300Y0180000D01*
X0126800Y0182500D01*
X0124300Y0180000D01*
X0119300Y0180000D01*
X0116800Y0182500D01*
X0116800Y0187500D01*
X0119300Y0190000D01*
X0124300Y0190000D01*
X0126800Y0187500D01*
X0129300Y0190000D01*
X0134300Y0190000D01*
X0136800Y0187500D01*
X0136800Y0182500D01*
X0136800Y0187500D02*
X0139300Y0190000D01*
X0144300Y0190000D01*
X0146800Y0187500D01*
X0149300Y0190000D01*
X0154300Y0190000D01*
X0156800Y0187500D01*
X0159300Y0190000D01*
X0164300Y0190000D01*
X0166800Y0187500D01*
X0166800Y0182500D01*
X0166800Y0187500D02*
X0169300Y0190000D01*
X0174300Y0190000D01*
X0176800Y0187500D01*
X0156800Y0187500D02*
X0156800Y0182500D01*
X0146800Y0182500D02*
X0146800Y0187500D01*
X0126800Y0187500D02*
X0126800Y0182500D01*
X0124300Y0152500D02*
X0114300Y0152500D01*
X0104300Y0152500D01*
X0104300Y0142500D01*
X0114300Y0142500D01*
X0124300Y0142500D01*
X0134300Y0142500D01*
X0134300Y0152500D01*
X0124300Y0152500D01*
X0124300Y0142500D01*
X0114300Y0142500D02*
X0114300Y0152500D01*
X0139300Y0152500D02*
X0139300Y0142500D01*
X0149300Y0142500D01*
X0159300Y0142500D01*
X0169300Y0142500D01*
X0169300Y0152500D01*
X0159300Y0152500D01*
X0149300Y0152500D01*
X0139300Y0152500D01*
X0149300Y0152500D02*
X0149300Y0142500D01*
X0159300Y0142500D02*
X0159300Y0152500D01*
X0186800Y0152500D02*
X0186800Y0142500D01*
X0196800Y0142500D01*
X0206800Y0142500D01*
X0216800Y0142500D01*
X0216800Y0152500D01*
X0206800Y0152500D01*
X0196800Y0152500D01*
X0186800Y0152500D01*
X0196800Y0152500D02*
X0196800Y0142500D01*
X0206800Y0142500D02*
X0206800Y0152500D01*
X0231800Y0152500D02*
X0231800Y0142500D01*
X0241800Y0142500D01*
X0251800Y0142500D01*
X0261800Y0142500D01*
X0261800Y0152500D01*
X0251800Y0152500D01*
X0241800Y0152500D01*
X0231800Y0152500D01*
X0241800Y0152500D02*
X0241800Y0142500D01*
X0251800Y0142500D02*
X0251800Y0152500D01*
X0269300Y0152500D02*
X0269300Y0142500D01*
X0279300Y0142500D01*
X0289300Y0142500D01*
X0299300Y0142500D01*
X0299300Y0152500D01*
X0289300Y0152500D01*
X0279300Y0152500D01*
X0269300Y0152500D01*
X0279300Y0152500D02*
X0279300Y0142500D01*
X0289300Y0142500D02*
X0289300Y0152500D01*
X0324300Y0152500D02*
X0324300Y0162500D01*
X0334300Y0162500D01*
X0344300Y0162500D01*
X0354300Y0162500D01*
X0354300Y0152500D01*
X0344300Y0152500D01*
X0344300Y0162500D01*
X0344300Y0152500D02*
X0334300Y0152500D01*
X0334300Y0162500D01*
X0334300Y0152500D02*
X0324300Y0152500D01*
X0194300Y0037500D02*
X0184300Y0037500D01*
X0174300Y0037500D01*
X0164300Y0037500D01*
X0164300Y0027500D01*
X0174300Y0027500D01*
X0184300Y0027500D01*
X0194300Y0027500D01*
X0194300Y0037500D01*
X0184300Y0037500D02*
X0184300Y0027500D01*
X0174300Y0027500D02*
X0174300Y0037500D01*
X0154300Y0037500D02*
X0154300Y0027500D01*
X0144300Y0027500D01*
X0134300Y0027500D01*
X0124300Y0027500D01*
X0124300Y0037500D01*
X0134300Y0037500D01*
X0134300Y0027500D01*
X0134300Y0037500D02*
X0144300Y0037500D01*
X0144300Y0027500D01*
X0144300Y0037500D02*
X0154300Y0037500D01*
X0114300Y0037500D02*
X0114300Y0027500D01*
X0104300Y0027500D01*
X0094300Y0027500D01*
X0084300Y0027500D01*
X0084300Y0037500D01*
X0094300Y0037500D01*
X0094300Y0027500D01*
X0104300Y0027500D02*
X0104300Y0037500D01*
X0094300Y0037500D01*
X0104300Y0037500D02*
X0114300Y0037500D01*
X0110800Y0255500D02*
X0109300Y0255500D01*
X0108800Y0256000D01*
X0089800Y0256000D01*
X0089300Y0255500D01*
X0087800Y0255500D01*
X0087740Y0255502D01*
X0087679Y0255507D01*
X0087620Y0255516D01*
X0087561Y0255529D01*
X0087502Y0255545D01*
X0087445Y0255565D01*
X0087390Y0255588D01*
X0087335Y0255615D01*
X0087283Y0255644D01*
X0087232Y0255677D01*
X0087183Y0255713D01*
X0087137Y0255751D01*
X0087093Y0255793D01*
X0087051Y0255837D01*
X0087013Y0255883D01*
X0086977Y0255932D01*
X0086944Y0255983D01*
X0086915Y0256035D01*
X0086888Y0256090D01*
X0086865Y0256145D01*
X0086845Y0256202D01*
X0086829Y0256261D01*
X0086816Y0256320D01*
X0086807Y0256379D01*
X0086802Y0256440D01*
X0086800Y0256500D01*
X0086800Y0263500D01*
X0086802Y0263560D01*
X0086807Y0263621D01*
X0086816Y0263680D01*
X0086829Y0263739D01*
X0086845Y0263798D01*
X0086865Y0263855D01*
X0086888Y0263910D01*
X0086915Y0263965D01*
X0086944Y0264017D01*
X0086977Y0264068D01*
X0087013Y0264117D01*
X0087051Y0264163D01*
X0087093Y0264207D01*
X0087137Y0264249D01*
X0087183Y0264287D01*
X0087232Y0264323D01*
X0087283Y0264356D01*
X0087335Y0264385D01*
X0087390Y0264412D01*
X0087445Y0264435D01*
X0087502Y0264455D01*
X0087561Y0264471D01*
X0087620Y0264484D01*
X0087679Y0264493D01*
X0087740Y0264498D01*
X0087800Y0264500D01*
X0089300Y0264500D01*
X0089800Y0264000D01*
X0108800Y0264000D01*
X0109300Y0264500D01*
X0110800Y0264500D01*
X0110860Y0264498D01*
X0110921Y0264493D01*
X0110980Y0264484D01*
X0111039Y0264471D01*
X0111098Y0264455D01*
X0111155Y0264435D01*
X0111210Y0264412D01*
X0111265Y0264385D01*
X0111317Y0264356D01*
X0111368Y0264323D01*
X0111417Y0264287D01*
X0111463Y0264249D01*
X0111507Y0264207D01*
X0111549Y0264163D01*
X0111587Y0264117D01*
X0111623Y0264068D01*
X0111656Y0264017D01*
X0111685Y0263965D01*
X0111712Y0263910D01*
X0111735Y0263855D01*
X0111755Y0263798D01*
X0111771Y0263739D01*
X0111784Y0263680D01*
X0111793Y0263621D01*
X0111798Y0263560D01*
X0111800Y0263500D01*
X0111800Y0256500D01*
X0111798Y0256440D01*
X0111793Y0256379D01*
X0111784Y0256320D01*
X0111771Y0256261D01*
X0111755Y0256202D01*
X0111735Y0256145D01*
X0111712Y0256090D01*
X0111685Y0256035D01*
X0111656Y0255983D01*
X0111623Y0255932D01*
X0111587Y0255883D01*
X0111549Y0255837D01*
X0111507Y0255793D01*
X0111463Y0255751D01*
X0111417Y0255713D01*
X0111368Y0255677D01*
X0111317Y0255644D01*
X0111265Y0255615D01*
X0111210Y0255588D01*
X0111155Y0255565D01*
X0111098Y0255545D01*
X0111039Y0255529D01*
X0110980Y0255516D01*
X0110921Y0255507D01*
X0110860Y0255502D01*
X0110800Y0255500D01*
X0111800Y0290000D02*
X0106800Y0290000D01*
X0104300Y0292500D01*
X0101800Y0290000D01*
X0096800Y0290000D01*
X0094300Y0292500D01*
X0091800Y0290000D01*
X0086800Y0290000D01*
X0084300Y0292500D01*
X0084300Y0297500D01*
X0086800Y0300000D01*
X0091800Y0300000D01*
X0094300Y0297500D01*
X0096800Y0300000D01*
X0101800Y0300000D01*
X0104300Y0297500D01*
X0104300Y0292500D01*
X0104300Y0297500D02*
X0106800Y0300000D01*
X0111800Y0300000D01*
X0114300Y0297500D01*
X0116800Y0300000D01*
X0121800Y0300000D01*
X0124300Y0297500D01*
X0126800Y0300000D01*
X0131800Y0300000D01*
X0134300Y0297500D01*
X0136800Y0300000D01*
X0141800Y0300000D01*
X0144300Y0297500D01*
X0144300Y0292500D01*
X0141800Y0290000D01*
X0136800Y0290000D01*
X0134300Y0292500D01*
X0131800Y0290000D01*
X0126800Y0290000D01*
X0124300Y0292500D01*
X0121800Y0290000D01*
X0116800Y0290000D01*
X0114300Y0292500D01*
X0111800Y0290000D01*
X0114300Y0292500D02*
X0114300Y0297500D01*
X0124300Y0297500D02*
X0124300Y0292500D01*
X0134300Y0292500D02*
X0134300Y0297500D01*
X0094300Y0297500D02*
X0094300Y0292500D01*
D12*
X0094959Y0302450D02*
X0094959Y0306954D01*
X0093458Y0305453D01*
X0091856Y0306203D02*
X0091856Y0304702D01*
X0091106Y0303951D01*
X0088854Y0303951D01*
X0088854Y0302450D02*
X0088854Y0306954D01*
X0091106Y0306954D01*
X0091856Y0306203D01*
X0087253Y0306954D02*
X0085751Y0306954D01*
X0086502Y0306954D02*
X0086502Y0303201D01*
X0085751Y0302450D01*
X0085001Y0302450D01*
X0084250Y0303201D01*
X0093458Y0302450D02*
X0096460Y0302450D01*
X0098062Y0302450D02*
X0101064Y0302450D01*
X0099563Y0302450D02*
X0099563Y0306954D01*
X0098062Y0305453D01*
X0093655Y0270754D02*
X0093655Y0266250D01*
X0092154Y0266250D02*
X0095156Y0266250D01*
X0092154Y0269253D02*
X0093655Y0270754D01*
X0090553Y0270003D02*
X0090553Y0268502D01*
X0089802Y0267751D01*
X0087550Y0267751D01*
X0087550Y0266250D02*
X0087550Y0270754D01*
X0089802Y0270754D01*
X0090553Y0270003D01*
X0089051Y0267751D02*
X0090553Y0266250D01*
X0118251Y0196954D02*
X0119753Y0196954D01*
X0119002Y0196954D02*
X0119002Y0193201D01*
X0118251Y0192450D01*
X0117501Y0192450D01*
X0116750Y0193201D01*
X0121354Y0193951D02*
X0123606Y0193951D01*
X0124356Y0194702D01*
X0124356Y0196203D01*
X0123606Y0196954D01*
X0121354Y0196954D01*
X0121354Y0192450D01*
X0125958Y0192450D02*
X0128960Y0192450D01*
X0127459Y0192450D02*
X0127459Y0196954D01*
X0125958Y0195453D01*
X0141550Y0158649D02*
X0141550Y0155646D01*
X0141550Y0157147D02*
X0137046Y0157147D01*
X0138547Y0155646D01*
X0137797Y0154045D02*
X0137046Y0153294D01*
X0137046Y0151793D01*
X0137797Y0151042D01*
X0140799Y0151042D01*
X0141550Y0151793D01*
X0141550Y0153294D01*
X0140799Y0154045D01*
X0137797Y0154045D01*
X0137046Y0149441D02*
X0140049Y0149441D01*
X0141550Y0147939D01*
X0140049Y0146438D01*
X0137046Y0146438D01*
X0137797Y0144837D02*
X0139298Y0144837D01*
X0140049Y0144086D01*
X0140049Y0141834D01*
X0141550Y0141834D02*
X0137046Y0141834D01*
X0137046Y0144086D01*
X0137797Y0144837D01*
X0140049Y0143336D02*
X0141550Y0144837D01*
X0141550Y0140233D02*
X0141550Y0137230D01*
X0137046Y0137230D01*
X0137046Y0140233D01*
X0139298Y0138732D02*
X0139298Y0137230D01*
X0140049Y0135629D02*
X0140799Y0135629D01*
X0141550Y0134878D01*
X0141550Y0133377D01*
X0140799Y0132626D01*
X0139298Y0133377D02*
X0139298Y0134878D01*
X0140049Y0135629D01*
X0137797Y0135629D02*
X0137046Y0134878D01*
X0137046Y0133377D01*
X0137797Y0132626D01*
X0138547Y0132626D01*
X0139298Y0133377D01*
X0172046Y0133377D02*
X0172797Y0132626D01*
X0173547Y0132626D01*
X0174298Y0133377D01*
X0174298Y0134878D01*
X0175049Y0135629D01*
X0175799Y0135629D01*
X0176550Y0134878D01*
X0176550Y0133377D01*
X0175799Y0132626D01*
X0172046Y0133377D02*
X0172046Y0134878D01*
X0172797Y0135629D01*
X0172046Y0137230D02*
X0176550Y0137230D01*
X0176550Y0140233D01*
X0176550Y0141834D02*
X0172046Y0141834D01*
X0172046Y0144086D01*
X0172797Y0144837D01*
X0174298Y0144837D01*
X0175049Y0144086D01*
X0175049Y0141834D01*
X0175049Y0143336D02*
X0176550Y0144837D01*
X0175049Y0146438D02*
X0176550Y0147939D01*
X0175049Y0149441D01*
X0172046Y0149441D01*
X0172797Y0151042D02*
X0175799Y0151042D01*
X0176550Y0151793D01*
X0176550Y0153294D01*
X0175799Y0154045D01*
X0172797Y0154045D01*
X0172046Y0153294D01*
X0172046Y0151793D01*
X0172797Y0151042D01*
X0172046Y0146438D02*
X0175049Y0146438D01*
X0172046Y0140233D02*
X0172046Y0137230D01*
X0174298Y0137230D02*
X0174298Y0138732D01*
X0172797Y0155646D02*
X0172046Y0156397D01*
X0172046Y0157898D01*
X0172797Y0158649D01*
X0173547Y0158649D01*
X0174298Y0157898D01*
X0175049Y0158649D01*
X0175799Y0158649D01*
X0176550Y0157898D01*
X0176550Y0156397D01*
X0175799Y0155646D01*
X0174298Y0157147D02*
X0174298Y0157898D01*
X0219546Y0158649D02*
X0219546Y0155646D01*
X0221798Y0155646D01*
X0221047Y0157147D01*
X0221047Y0157898D01*
X0221798Y0158649D01*
X0223299Y0158649D01*
X0224050Y0157898D01*
X0224050Y0156397D01*
X0223299Y0155646D01*
X0223299Y0154045D02*
X0220297Y0154045D01*
X0219546Y0153294D01*
X0219546Y0151793D01*
X0220297Y0151042D01*
X0223299Y0151042D01*
X0224050Y0151793D01*
X0224050Y0153294D01*
X0223299Y0154045D01*
X0222549Y0149441D02*
X0219546Y0149441D01*
X0222549Y0149441D02*
X0224050Y0147939D01*
X0222549Y0146438D01*
X0219546Y0146438D01*
X0220297Y0144837D02*
X0221798Y0144837D01*
X0222549Y0144086D01*
X0222549Y0141834D01*
X0224050Y0141834D02*
X0219546Y0141834D01*
X0219546Y0144086D01*
X0220297Y0144837D01*
X0222549Y0143336D02*
X0224050Y0144837D01*
X0224050Y0140233D02*
X0224050Y0137230D01*
X0219546Y0137230D01*
X0219546Y0140233D01*
X0221798Y0138732D02*
X0221798Y0137230D01*
X0222549Y0135629D02*
X0223299Y0135629D01*
X0224050Y0134878D01*
X0224050Y0133377D01*
X0223299Y0132626D01*
X0221798Y0133377D02*
X0221798Y0134878D01*
X0222549Y0135629D01*
X0220297Y0135629D02*
X0219546Y0134878D01*
X0219546Y0133377D01*
X0220297Y0132626D01*
X0221047Y0132626D01*
X0221798Y0133377D01*
X0264546Y0134161D02*
X0264546Y0136413D01*
X0265297Y0137164D01*
X0266798Y0137164D01*
X0267549Y0136413D01*
X0267549Y0134161D01*
X0269050Y0134161D02*
X0264546Y0134161D01*
X0265297Y0132560D02*
X0264546Y0131809D01*
X0264546Y0129557D01*
X0269050Y0129557D01*
X0269050Y0131809D01*
X0268299Y0132560D01*
X0265297Y0132560D01*
X0267549Y0135662D02*
X0269050Y0137164D01*
X0268299Y0138765D02*
X0265297Y0138765D01*
X0264546Y0139516D01*
X0264546Y0141017D01*
X0265297Y0141767D01*
X0268299Y0141767D01*
X0269050Y0141017D01*
X0269050Y0139516D01*
X0268299Y0138765D01*
X0269050Y0143369D02*
X0269050Y0144870D01*
X0269050Y0144119D02*
X0264546Y0144119D01*
X0264546Y0143369D02*
X0264546Y0144870D01*
X0264546Y0146438D02*
X0264546Y0149441D01*
X0264546Y0147939D02*
X0269050Y0147939D01*
X0269050Y0151042D02*
X0264546Y0151042D01*
X0264546Y0154045D01*
X0265297Y0155646D02*
X0266047Y0155646D01*
X0266798Y0156397D01*
X0266798Y0157898D01*
X0267549Y0158649D01*
X0268299Y0158649D01*
X0269050Y0157898D01*
X0269050Y0156397D01*
X0268299Y0155646D01*
X0269050Y0154045D02*
X0269050Y0151042D01*
X0266798Y0151042D02*
X0266798Y0152543D01*
X0265297Y0155646D02*
X0264546Y0156397D01*
X0264546Y0157898D01*
X0265297Y0158649D01*
X0302046Y0157898D02*
X0302046Y0156397D01*
X0302797Y0155646D01*
X0303547Y0155646D01*
X0304298Y0156397D01*
X0304298Y0157898D01*
X0305049Y0158649D01*
X0305799Y0158649D01*
X0306550Y0157898D01*
X0306550Y0156397D01*
X0305799Y0155646D01*
X0306550Y0154045D02*
X0306550Y0151042D01*
X0302046Y0151042D01*
X0302046Y0154045D01*
X0304298Y0152543D02*
X0304298Y0151042D01*
X0304298Y0149441D02*
X0304298Y0146438D01*
X0302797Y0144837D02*
X0302046Y0144086D01*
X0302046Y0142585D01*
X0302797Y0141834D01*
X0305799Y0141834D01*
X0306550Y0142585D01*
X0306550Y0144086D01*
X0305799Y0144837D01*
X0306550Y0146438D02*
X0302046Y0146438D01*
X0302046Y0149441D02*
X0306550Y0149441D01*
X0317046Y0150605D02*
X0317797Y0149854D01*
X0320799Y0149854D01*
X0321550Y0150605D01*
X0321550Y0152106D01*
X0320799Y0152856D01*
X0317797Y0152856D01*
X0317046Y0152106D01*
X0317046Y0150605D01*
X0317046Y0148253D02*
X0317046Y0145250D01*
X0317046Y0146751D02*
X0321550Y0146751D01*
X0320799Y0154458D02*
X0317046Y0154458D01*
X0317046Y0157460D02*
X0320799Y0157460D01*
X0321550Y0156710D01*
X0321550Y0155208D01*
X0320799Y0154458D01*
X0320049Y0159062D02*
X0320049Y0161314D01*
X0319298Y0162064D01*
X0317797Y0162064D01*
X0317046Y0161314D01*
X0317046Y0159062D01*
X0321550Y0159062D01*
X0320049Y0160563D02*
X0321550Y0162064D01*
X0321550Y0163666D02*
X0321550Y0166668D01*
X0321550Y0168270D02*
X0317046Y0168270D01*
X0317046Y0166668D02*
X0317046Y0163666D01*
X0321550Y0163666D01*
X0319298Y0163666D02*
X0319298Y0165167D01*
X0321550Y0168270D02*
X0321550Y0171272D01*
X0321550Y0172874D02*
X0321550Y0175876D01*
X0321550Y0177477D02*
X0317046Y0177477D01*
X0317046Y0180480D01*
X0319298Y0178979D02*
X0319298Y0177477D01*
X0321550Y0177477D02*
X0321550Y0180480D01*
X0321550Y0172874D02*
X0317046Y0172874D01*
X0302797Y0158649D02*
X0302046Y0157898D01*
X0302046Y0140233D02*
X0305799Y0140233D01*
X0306550Y0139482D01*
X0306550Y0137981D01*
X0305799Y0137230D01*
X0302046Y0137230D01*
X0303547Y0135629D02*
X0302046Y0134128D01*
X0303547Y0132626D01*
X0306550Y0132626D01*
X0305799Y0131025D02*
X0304298Y0131025D01*
X0304298Y0129524D01*
X0302797Y0131025D02*
X0302046Y0130274D01*
X0302046Y0128773D01*
X0302797Y0128022D01*
X0305799Y0128022D01*
X0306550Y0128773D01*
X0306550Y0130274D01*
X0305799Y0131025D01*
X0304298Y0132626D02*
X0304298Y0135629D01*
X0303547Y0135629D02*
X0306550Y0135629D01*
X0307301Y0126421D02*
X0307301Y0123418D01*
X0305799Y0121817D02*
X0306550Y0121066D01*
X0306550Y0119565D01*
X0305799Y0118815D01*
X0304298Y0119565D02*
X0303547Y0118815D01*
X0302797Y0118815D01*
X0302046Y0119565D01*
X0302046Y0121066D01*
X0302797Y0121817D01*
X0304298Y0121066D02*
X0305049Y0121817D01*
X0305799Y0121817D01*
X0304298Y0121066D02*
X0304298Y0119565D01*
X0302046Y0117213D02*
X0302046Y0114211D01*
X0306550Y0114211D01*
X0306550Y0117213D01*
X0304298Y0115712D02*
X0304298Y0114211D01*
X0305799Y0112609D02*
X0302046Y0112609D01*
X0302046Y0109607D02*
X0305799Y0109607D01*
X0306550Y0110357D01*
X0306550Y0111859D01*
X0305799Y0112609D01*
X0305799Y0108005D02*
X0302797Y0108005D01*
X0302046Y0107255D01*
X0302046Y0105753D01*
X0302797Y0105003D01*
X0305799Y0105003D01*
X0306550Y0105753D01*
X0306550Y0107255D01*
X0305799Y0108005D01*
X0306550Y0103401D02*
X0305049Y0101900D01*
X0305049Y0102651D02*
X0305049Y0100399D01*
X0306550Y0100399D02*
X0302046Y0100399D01*
X0302046Y0102651D01*
X0302797Y0103401D01*
X0304298Y0103401D01*
X0305049Y0102651D01*
X0269801Y0124953D02*
X0269801Y0127956D01*
X0268299Y0123352D02*
X0269050Y0122601D01*
X0269050Y0121100D01*
X0268299Y0120349D01*
X0266798Y0121100D02*
X0266798Y0122601D01*
X0267549Y0123352D01*
X0268299Y0123352D01*
X0266798Y0121100D02*
X0266047Y0120349D01*
X0265297Y0120349D01*
X0264546Y0121100D01*
X0264546Y0122601D01*
X0265297Y0123352D01*
X0264546Y0118748D02*
X0264546Y0115745D01*
X0269050Y0115745D01*
X0269050Y0118748D01*
X0266798Y0117247D02*
X0266798Y0115745D01*
X0268299Y0114144D02*
X0264546Y0114144D01*
X0264546Y0111141D02*
X0268299Y0111141D01*
X0269050Y0111892D01*
X0269050Y0113393D01*
X0268299Y0114144D01*
X0268299Y0109540D02*
X0265297Y0109540D01*
X0264546Y0108789D01*
X0264546Y0107288D01*
X0265297Y0106537D01*
X0268299Y0106537D01*
X0269050Y0107288D01*
X0269050Y0108789D01*
X0268299Y0109540D01*
X0269050Y0104936D02*
X0267549Y0103435D01*
X0267549Y0104185D02*
X0267549Y0101934D01*
X0269050Y0101934D02*
X0264546Y0101934D01*
X0264546Y0104185D01*
X0265297Y0104936D01*
X0266798Y0104936D01*
X0267549Y0104185D01*
X0201550Y0042898D02*
X0197046Y0042898D01*
X0199298Y0040646D01*
X0199298Y0043649D01*
X0197797Y0039045D02*
X0197046Y0038294D01*
X0197046Y0036793D01*
X0197797Y0036042D01*
X0200799Y0036042D01*
X0201550Y0036793D01*
X0201550Y0038294D01*
X0200799Y0039045D01*
X0197797Y0039045D01*
X0197046Y0034441D02*
X0200049Y0034441D01*
X0201550Y0032939D01*
X0200049Y0031438D01*
X0197046Y0031438D01*
X0197797Y0029837D02*
X0199298Y0029837D01*
X0200049Y0029086D01*
X0200049Y0026834D01*
X0201550Y0026834D02*
X0197046Y0026834D01*
X0197046Y0029086D01*
X0197797Y0029837D01*
X0200049Y0028336D02*
X0201550Y0029837D01*
X0201550Y0025233D02*
X0201550Y0022230D01*
X0197046Y0022230D01*
X0197046Y0025233D01*
X0199298Y0023732D02*
X0199298Y0022230D01*
X0200049Y0020629D02*
X0200799Y0020629D01*
X0201550Y0019878D01*
X0201550Y0018377D01*
X0200799Y0017626D01*
X0199298Y0018377D02*
X0199298Y0019878D01*
X0200049Y0020629D01*
X0197797Y0020629D02*
X0197046Y0019878D01*
X0197046Y0018377D01*
X0197797Y0017626D01*
X0198547Y0017626D01*
X0199298Y0018377D01*
X0161550Y0018377D02*
X0160799Y0017626D01*
X0161550Y0018377D02*
X0161550Y0019878D01*
X0160799Y0020629D01*
X0160049Y0020629D01*
X0159298Y0019878D01*
X0159298Y0018377D01*
X0158547Y0017626D01*
X0157797Y0017626D01*
X0157046Y0018377D01*
X0157046Y0019878D01*
X0157797Y0020629D01*
X0157046Y0022230D02*
X0161550Y0022230D01*
X0161550Y0025233D01*
X0161550Y0026834D02*
X0157046Y0026834D01*
X0157046Y0029086D01*
X0157797Y0029837D01*
X0159298Y0029837D01*
X0160049Y0029086D01*
X0160049Y0026834D01*
X0160049Y0028336D02*
X0161550Y0029837D01*
X0160049Y0031438D02*
X0161550Y0032939D01*
X0160049Y0034441D01*
X0157046Y0034441D01*
X0157797Y0036042D02*
X0160799Y0036042D01*
X0161550Y0036793D01*
X0161550Y0038294D01*
X0160799Y0039045D01*
X0157797Y0039045D01*
X0157046Y0038294D01*
X0157046Y0036793D01*
X0157797Y0036042D01*
X0157797Y0040646D02*
X0157046Y0041397D01*
X0157046Y0042898D01*
X0157797Y0043649D01*
X0158547Y0043649D01*
X0161550Y0040646D01*
X0161550Y0043649D01*
X0160049Y0031438D02*
X0157046Y0031438D01*
X0157046Y0025233D02*
X0157046Y0022230D01*
X0159298Y0022230D02*
X0159298Y0023732D01*
X0121550Y0022230D02*
X0121550Y0025233D01*
X0121550Y0026834D02*
X0117046Y0026834D01*
X0117046Y0029086D01*
X0117797Y0029837D01*
X0119298Y0029837D01*
X0120049Y0029086D01*
X0120049Y0026834D01*
X0120049Y0028336D02*
X0121550Y0029837D01*
X0120049Y0031438D02*
X0121550Y0032939D01*
X0120049Y0034441D01*
X0117046Y0034441D01*
X0117797Y0036042D02*
X0120799Y0036042D01*
X0121550Y0036793D01*
X0121550Y0038294D01*
X0120799Y0039045D01*
X0117797Y0039045D01*
X0117046Y0038294D01*
X0117046Y0036793D01*
X0117797Y0036042D01*
X0117797Y0040646D02*
X0117046Y0041397D01*
X0117046Y0042898D01*
X0117797Y0043649D01*
X0120799Y0040646D01*
X0121550Y0041397D01*
X0121550Y0042898D01*
X0120799Y0043649D01*
X0117797Y0043649D01*
X0117797Y0040646D02*
X0120799Y0040646D01*
X0120049Y0031438D02*
X0117046Y0031438D01*
X0117046Y0025233D02*
X0117046Y0022230D01*
X0121550Y0022230D01*
X0120799Y0020629D02*
X0121550Y0019878D01*
X0121550Y0018377D01*
X0120799Y0017626D01*
X0119298Y0018377D02*
X0119298Y0019878D01*
X0120049Y0020629D01*
X0120799Y0020629D01*
X0119298Y0022230D02*
X0119298Y0023732D01*
X0117797Y0020629D02*
X0117046Y0019878D01*
X0117046Y0018377D01*
X0117797Y0017626D01*
X0118547Y0017626D01*
X0119298Y0018377D01*
D13*
X0129300Y0025000D02*
X0129300Y0002500D01*
X0139300Y0002500D02*
X0139300Y0025000D01*
X0149300Y0025000D02*
X0149300Y0002500D01*
X0169300Y0002500D02*
X0169300Y0025000D01*
X0179300Y0025000D02*
X0179300Y0002500D01*
X0189300Y0002500D02*
X0189300Y0025000D01*
X0109300Y0025000D02*
X0109300Y0002500D01*
X0099300Y0002500D02*
X0099300Y0025000D01*
X0089300Y0025000D02*
X0089300Y0002500D01*
X0109300Y0117500D02*
X0109300Y0140000D01*
X0119300Y0140000D02*
X0119300Y0117500D01*
X0129300Y0117500D02*
X0129300Y0140000D01*
X0144300Y0140000D02*
X0144300Y0117500D01*
X0154300Y0117500D02*
X0154300Y0140000D01*
X0164300Y0140000D02*
X0164300Y0117500D01*
X0191800Y0117500D02*
X0191800Y0140000D01*
X0201800Y0140000D02*
X0201800Y0117500D01*
X0211800Y0117500D02*
X0211800Y0140000D01*
X0236800Y0140000D02*
X0236800Y0117500D01*
X0246800Y0117500D02*
X0246800Y0140000D01*
X0256800Y0140000D02*
X0256800Y0117500D01*
X0274300Y0117500D02*
X0274300Y0140000D01*
X0284300Y0140000D02*
X0284300Y0117500D01*
X0294300Y0117500D02*
X0294300Y0140000D01*
X0329300Y0165000D02*
X0329300Y0187500D01*
X0339300Y0187500D02*
X0339300Y0165000D01*
X0349300Y0165000D02*
X0349300Y0187500D01*
D14*
X0349300Y0163500D03*
X0339300Y0163500D03*
X0329300Y0163500D03*
X0294300Y0141500D03*
X0284300Y0141500D03*
X0274300Y0141500D03*
X0256800Y0141500D03*
X0246800Y0141500D03*
X0236800Y0141500D03*
X0211800Y0141500D03*
X0201800Y0141500D03*
X0191800Y0141500D03*
X0164300Y0141500D03*
X0154300Y0141500D03*
X0144300Y0141500D03*
X0129300Y0141500D03*
X0119300Y0141500D03*
X0109300Y0141500D03*
X0109300Y0026500D03*
X0099300Y0026500D03*
X0089300Y0026500D03*
X0129300Y0026500D03*
X0139300Y0026500D03*
X0149300Y0026500D03*
X0169300Y0026500D03*
X0179300Y0026500D03*
X0189300Y0026500D03*
D15*
X0189300Y0039500D03*
X0179300Y0039500D03*
X0169300Y0039500D03*
X0149300Y0039500D03*
X0139300Y0039500D03*
X0129300Y0039500D03*
X0109300Y0039500D03*
X0099300Y0039500D03*
X0089300Y0039500D03*
X0109300Y0154500D03*
X0119300Y0154500D03*
X0129300Y0154500D03*
X0144300Y0154500D03*
X0154300Y0154500D03*
X0164300Y0154500D03*
X0191800Y0154500D03*
X0201800Y0154500D03*
X0211800Y0154500D03*
X0236800Y0154500D03*
X0246800Y0154500D03*
X0256800Y0154500D03*
X0274300Y0154500D03*
X0284300Y0154500D03*
X0294300Y0154500D03*
X0329300Y0150500D03*
X0339300Y0150500D03*
X0349300Y0150500D03*
D16*
X0113500Y0260000D03*
X0085100Y0260000D03*
D17*
X0061800Y0053750D02*
X0070550Y0045000D01*
X0363050Y0045000D01*
X0371800Y0053750D01*
X0371800Y0286250D01*
X0363050Y0295000D01*
X0070550Y0295000D01*
X0061800Y0286250D01*
X0061800Y0053750D01*
M02*
