G75*
%MOIN*%
%OFA0B0*%
%FSLAX25Y25*%
%IPPOS*%
%LPD*%
%AMOC8*
5,1,8,0,0,1.08239X$1,22.5*
%
%ADD10C,0.06800*%
%ADD11OC8,0.06000*%
%ADD12C,0.06737*%
%ADD13R,0.06737X0.06737*%
%ADD14C,0.13398*%
%ADD15C,0.04800*%
D10*
X0089300Y0042000D02*
X0089300Y0048000D01*
X0099300Y0048000D02*
X0099300Y0042000D01*
X0109300Y0042000D02*
X0109300Y0048000D01*
X0129300Y0048000D02*
X0129300Y0042000D01*
X0139300Y0042000D02*
X0139300Y0048000D01*
X0149300Y0048000D02*
X0149300Y0042000D01*
X0169300Y0042000D02*
X0169300Y0048000D01*
X0179300Y0048000D02*
X0179300Y0042000D01*
X0189300Y0042000D02*
X0189300Y0048000D01*
X0191800Y0157000D02*
X0191800Y0163000D01*
X0201800Y0163000D02*
X0201800Y0157000D01*
X0211800Y0157000D02*
X0211800Y0163000D01*
X0236800Y0163000D02*
X0236800Y0157000D01*
X0246800Y0157000D02*
X0246800Y0163000D01*
X0256800Y0163000D02*
X0256800Y0157000D01*
X0274300Y0157000D02*
X0274300Y0163000D01*
X0284300Y0163000D02*
X0284300Y0157000D01*
X0294300Y0157000D02*
X0294300Y0163000D01*
X0329300Y0148000D02*
X0329300Y0142000D01*
X0339300Y0142000D02*
X0339300Y0148000D01*
X0349300Y0148000D02*
X0349300Y0142000D01*
X0191800Y0182000D02*
X0191800Y0188000D01*
X0181800Y0188000D02*
X0181800Y0182000D01*
X0171800Y0182000D02*
X0171800Y0188000D01*
X0161800Y0188000D02*
X0161800Y0182000D01*
X0151800Y0182000D02*
X0151800Y0188000D01*
X0141800Y0188000D02*
X0141800Y0182000D01*
X0131800Y0182000D02*
X0131800Y0188000D01*
X0121800Y0188000D02*
X0121800Y0182000D01*
X0119300Y0163000D02*
X0119300Y0157000D01*
X0129300Y0157000D02*
X0129300Y0163000D01*
X0144300Y0163000D02*
X0144300Y0157000D01*
X0154300Y0157000D02*
X0154300Y0163000D01*
X0164300Y0163000D02*
X0164300Y0157000D01*
X0109300Y0157000D02*
X0109300Y0163000D01*
X0109300Y0292000D02*
X0109300Y0298000D01*
X0099300Y0298000D02*
X0099300Y0292000D01*
X0089300Y0292000D02*
X0089300Y0298000D01*
X0119300Y0298000D02*
X0119300Y0292000D01*
X0129300Y0292000D02*
X0129300Y0298000D01*
X0139300Y0298000D02*
X0139300Y0292000D01*
D11*
X0119300Y0260000D03*
X0079300Y0260000D03*
D12*
X0076800Y0250000D03*
X0076800Y0240000D03*
X0076800Y0230000D03*
X0076800Y0220000D03*
X0076800Y0210000D03*
X0086800Y0210000D03*
X0086800Y0220000D03*
X0086800Y0230000D03*
X0086800Y0240000D03*
X0096800Y0270000D03*
X0106800Y0270000D03*
X0116800Y0270000D03*
X0126800Y0270000D03*
X0136800Y0270000D03*
X0146800Y0270000D03*
X0156800Y0270000D03*
X0166800Y0270000D03*
X0176800Y0270000D03*
X0186800Y0270000D03*
X0196800Y0270000D03*
X0206800Y0270000D03*
X0216800Y0270000D03*
X0226800Y0270000D03*
X0236800Y0270000D03*
X0246800Y0270000D03*
X0256800Y0270000D03*
X0266800Y0270000D03*
X0276800Y0270000D03*
X0286800Y0270000D03*
X0296800Y0270000D03*
X0306800Y0270000D03*
X0316800Y0270000D03*
X0326800Y0270000D03*
X0336800Y0270000D03*
X0336800Y0280000D03*
X0326800Y0280000D03*
X0316800Y0280000D03*
X0306800Y0280000D03*
X0296800Y0280000D03*
X0286800Y0280000D03*
X0276800Y0280000D03*
X0266800Y0280000D03*
X0256800Y0280000D03*
X0246800Y0280000D03*
X0236800Y0280000D03*
X0226800Y0280000D03*
X0216800Y0280000D03*
X0206800Y0280000D03*
X0196800Y0280000D03*
X0186800Y0280000D03*
X0176800Y0280000D03*
X0166800Y0280000D03*
X0156800Y0280000D03*
X0146800Y0280000D03*
X0136800Y0280000D03*
X0126800Y0280000D03*
X0116800Y0280000D03*
X0106800Y0280000D03*
X0106800Y0070000D03*
X0116800Y0070000D03*
X0116800Y0060000D03*
X0106800Y0060000D03*
X0096800Y0060000D03*
X0126800Y0060000D03*
X0136800Y0060000D03*
X0146800Y0060000D03*
X0146800Y0070000D03*
X0136800Y0070000D03*
X0126800Y0070000D03*
X0156800Y0070000D03*
X0166800Y0070000D03*
X0166800Y0060000D03*
X0156800Y0060000D03*
X0176800Y0060000D03*
X0186800Y0060000D03*
X0186800Y0070000D03*
X0176800Y0070000D03*
X0196800Y0070000D03*
X0206800Y0070000D03*
X0206800Y0060000D03*
X0196800Y0060000D03*
X0216800Y0060000D03*
X0226800Y0060000D03*
X0236800Y0060000D03*
X0236800Y0070000D03*
X0226800Y0070000D03*
X0216800Y0070000D03*
X0246800Y0070000D03*
X0256800Y0070000D03*
X0256800Y0060000D03*
X0246800Y0060000D03*
X0266800Y0060000D03*
X0276800Y0060000D03*
X0276800Y0070000D03*
X0266800Y0070000D03*
X0286800Y0070000D03*
X0296800Y0070000D03*
X0296800Y0060000D03*
X0286800Y0060000D03*
X0306800Y0060000D03*
X0316800Y0060000D03*
X0326800Y0060000D03*
X0326800Y0070000D03*
X0316800Y0070000D03*
X0306800Y0070000D03*
X0336800Y0070000D03*
X0336800Y0060000D03*
D13*
X0096800Y0070000D03*
X0086800Y0250000D03*
X0096800Y0280000D03*
D14*
X0076800Y0060000D03*
X0076800Y0280000D03*
X0356800Y0280000D03*
X0356800Y0060000D03*
D15*
X0120300Y0054000D03*
X0101800Y0076000D03*
X0097800Y0245000D03*
M02*
