G75*
%MOIN*%
%OFA0B0*%
%FSLAX25Y25*%
%IPPOS*%
%LPD*%
%AMOC8*
5,1,8,0,0,1.08239X$1,22.5*
%
%ADD10C,0.00000*%
D10*
X0006800Y0030000D02*
X0006800Y0314961D01*
X0400501Y0314961D01*
X0400501Y0030000D01*
X0006800Y0030000D01*
X0070501Y0060000D02*
X0070503Y0060158D01*
X0070509Y0060316D01*
X0070519Y0060474D01*
X0070533Y0060632D01*
X0070551Y0060789D01*
X0070572Y0060946D01*
X0070598Y0061102D01*
X0070628Y0061258D01*
X0070661Y0061413D01*
X0070699Y0061566D01*
X0070740Y0061719D01*
X0070785Y0061871D01*
X0070834Y0062022D01*
X0070887Y0062171D01*
X0070943Y0062319D01*
X0071003Y0062465D01*
X0071067Y0062610D01*
X0071135Y0062753D01*
X0071206Y0062895D01*
X0071280Y0063035D01*
X0071358Y0063172D01*
X0071440Y0063308D01*
X0071524Y0063442D01*
X0071613Y0063573D01*
X0071704Y0063702D01*
X0071799Y0063829D01*
X0071896Y0063954D01*
X0071997Y0064076D01*
X0072101Y0064195D01*
X0072208Y0064312D01*
X0072318Y0064426D01*
X0072431Y0064537D01*
X0072546Y0064646D01*
X0072664Y0064751D01*
X0072785Y0064853D01*
X0072908Y0064953D01*
X0073034Y0065049D01*
X0073162Y0065142D01*
X0073292Y0065232D01*
X0073425Y0065318D01*
X0073560Y0065402D01*
X0073696Y0065481D01*
X0073835Y0065558D01*
X0073976Y0065630D01*
X0074118Y0065700D01*
X0074262Y0065765D01*
X0074408Y0065827D01*
X0074555Y0065885D01*
X0074704Y0065940D01*
X0074854Y0065991D01*
X0075005Y0066038D01*
X0075157Y0066081D01*
X0075310Y0066120D01*
X0075465Y0066156D01*
X0075620Y0066187D01*
X0075776Y0066215D01*
X0075932Y0066239D01*
X0076089Y0066259D01*
X0076247Y0066275D01*
X0076404Y0066287D01*
X0076563Y0066295D01*
X0076721Y0066299D01*
X0076879Y0066299D01*
X0077037Y0066295D01*
X0077196Y0066287D01*
X0077353Y0066275D01*
X0077511Y0066259D01*
X0077668Y0066239D01*
X0077824Y0066215D01*
X0077980Y0066187D01*
X0078135Y0066156D01*
X0078290Y0066120D01*
X0078443Y0066081D01*
X0078595Y0066038D01*
X0078746Y0065991D01*
X0078896Y0065940D01*
X0079045Y0065885D01*
X0079192Y0065827D01*
X0079338Y0065765D01*
X0079482Y0065700D01*
X0079624Y0065630D01*
X0079765Y0065558D01*
X0079904Y0065481D01*
X0080040Y0065402D01*
X0080175Y0065318D01*
X0080308Y0065232D01*
X0080438Y0065142D01*
X0080566Y0065049D01*
X0080692Y0064953D01*
X0080815Y0064853D01*
X0080936Y0064751D01*
X0081054Y0064646D01*
X0081169Y0064537D01*
X0081282Y0064426D01*
X0081392Y0064312D01*
X0081499Y0064195D01*
X0081603Y0064076D01*
X0081704Y0063954D01*
X0081801Y0063829D01*
X0081896Y0063702D01*
X0081987Y0063573D01*
X0082076Y0063442D01*
X0082160Y0063308D01*
X0082242Y0063172D01*
X0082320Y0063035D01*
X0082394Y0062895D01*
X0082465Y0062753D01*
X0082533Y0062610D01*
X0082597Y0062465D01*
X0082657Y0062319D01*
X0082713Y0062171D01*
X0082766Y0062022D01*
X0082815Y0061871D01*
X0082860Y0061719D01*
X0082901Y0061566D01*
X0082939Y0061413D01*
X0082972Y0061258D01*
X0083002Y0061102D01*
X0083028Y0060946D01*
X0083049Y0060789D01*
X0083067Y0060632D01*
X0083081Y0060474D01*
X0083091Y0060316D01*
X0083097Y0060158D01*
X0083099Y0060000D01*
X0083097Y0059842D01*
X0083091Y0059684D01*
X0083081Y0059526D01*
X0083067Y0059368D01*
X0083049Y0059211D01*
X0083028Y0059054D01*
X0083002Y0058898D01*
X0082972Y0058742D01*
X0082939Y0058587D01*
X0082901Y0058434D01*
X0082860Y0058281D01*
X0082815Y0058129D01*
X0082766Y0057978D01*
X0082713Y0057829D01*
X0082657Y0057681D01*
X0082597Y0057535D01*
X0082533Y0057390D01*
X0082465Y0057247D01*
X0082394Y0057105D01*
X0082320Y0056965D01*
X0082242Y0056828D01*
X0082160Y0056692D01*
X0082076Y0056558D01*
X0081987Y0056427D01*
X0081896Y0056298D01*
X0081801Y0056171D01*
X0081704Y0056046D01*
X0081603Y0055924D01*
X0081499Y0055805D01*
X0081392Y0055688D01*
X0081282Y0055574D01*
X0081169Y0055463D01*
X0081054Y0055354D01*
X0080936Y0055249D01*
X0080815Y0055147D01*
X0080692Y0055047D01*
X0080566Y0054951D01*
X0080438Y0054858D01*
X0080308Y0054768D01*
X0080175Y0054682D01*
X0080040Y0054598D01*
X0079904Y0054519D01*
X0079765Y0054442D01*
X0079624Y0054370D01*
X0079482Y0054300D01*
X0079338Y0054235D01*
X0079192Y0054173D01*
X0079045Y0054115D01*
X0078896Y0054060D01*
X0078746Y0054009D01*
X0078595Y0053962D01*
X0078443Y0053919D01*
X0078290Y0053880D01*
X0078135Y0053844D01*
X0077980Y0053813D01*
X0077824Y0053785D01*
X0077668Y0053761D01*
X0077511Y0053741D01*
X0077353Y0053725D01*
X0077196Y0053713D01*
X0077037Y0053705D01*
X0076879Y0053701D01*
X0076721Y0053701D01*
X0076563Y0053705D01*
X0076404Y0053713D01*
X0076247Y0053725D01*
X0076089Y0053741D01*
X0075932Y0053761D01*
X0075776Y0053785D01*
X0075620Y0053813D01*
X0075465Y0053844D01*
X0075310Y0053880D01*
X0075157Y0053919D01*
X0075005Y0053962D01*
X0074854Y0054009D01*
X0074704Y0054060D01*
X0074555Y0054115D01*
X0074408Y0054173D01*
X0074262Y0054235D01*
X0074118Y0054300D01*
X0073976Y0054370D01*
X0073835Y0054442D01*
X0073696Y0054519D01*
X0073560Y0054598D01*
X0073425Y0054682D01*
X0073292Y0054768D01*
X0073162Y0054858D01*
X0073034Y0054951D01*
X0072908Y0055047D01*
X0072785Y0055147D01*
X0072664Y0055249D01*
X0072546Y0055354D01*
X0072431Y0055463D01*
X0072318Y0055574D01*
X0072208Y0055688D01*
X0072101Y0055805D01*
X0071997Y0055924D01*
X0071896Y0056046D01*
X0071799Y0056171D01*
X0071704Y0056298D01*
X0071613Y0056427D01*
X0071524Y0056558D01*
X0071440Y0056692D01*
X0071358Y0056828D01*
X0071280Y0056965D01*
X0071206Y0057105D01*
X0071135Y0057247D01*
X0071067Y0057390D01*
X0071003Y0057535D01*
X0070943Y0057681D01*
X0070887Y0057829D01*
X0070834Y0057978D01*
X0070785Y0058129D01*
X0070740Y0058281D01*
X0070699Y0058434D01*
X0070661Y0058587D01*
X0070628Y0058742D01*
X0070598Y0058898D01*
X0070572Y0059054D01*
X0070551Y0059211D01*
X0070533Y0059368D01*
X0070519Y0059526D01*
X0070509Y0059684D01*
X0070503Y0059842D01*
X0070501Y0060000D01*
X0070501Y0280000D02*
X0070503Y0280158D01*
X0070509Y0280316D01*
X0070519Y0280474D01*
X0070533Y0280632D01*
X0070551Y0280789D01*
X0070572Y0280946D01*
X0070598Y0281102D01*
X0070628Y0281258D01*
X0070661Y0281413D01*
X0070699Y0281566D01*
X0070740Y0281719D01*
X0070785Y0281871D01*
X0070834Y0282022D01*
X0070887Y0282171D01*
X0070943Y0282319D01*
X0071003Y0282465D01*
X0071067Y0282610D01*
X0071135Y0282753D01*
X0071206Y0282895D01*
X0071280Y0283035D01*
X0071358Y0283172D01*
X0071440Y0283308D01*
X0071524Y0283442D01*
X0071613Y0283573D01*
X0071704Y0283702D01*
X0071799Y0283829D01*
X0071896Y0283954D01*
X0071997Y0284076D01*
X0072101Y0284195D01*
X0072208Y0284312D01*
X0072318Y0284426D01*
X0072431Y0284537D01*
X0072546Y0284646D01*
X0072664Y0284751D01*
X0072785Y0284853D01*
X0072908Y0284953D01*
X0073034Y0285049D01*
X0073162Y0285142D01*
X0073292Y0285232D01*
X0073425Y0285318D01*
X0073560Y0285402D01*
X0073696Y0285481D01*
X0073835Y0285558D01*
X0073976Y0285630D01*
X0074118Y0285700D01*
X0074262Y0285765D01*
X0074408Y0285827D01*
X0074555Y0285885D01*
X0074704Y0285940D01*
X0074854Y0285991D01*
X0075005Y0286038D01*
X0075157Y0286081D01*
X0075310Y0286120D01*
X0075465Y0286156D01*
X0075620Y0286187D01*
X0075776Y0286215D01*
X0075932Y0286239D01*
X0076089Y0286259D01*
X0076247Y0286275D01*
X0076404Y0286287D01*
X0076563Y0286295D01*
X0076721Y0286299D01*
X0076879Y0286299D01*
X0077037Y0286295D01*
X0077196Y0286287D01*
X0077353Y0286275D01*
X0077511Y0286259D01*
X0077668Y0286239D01*
X0077824Y0286215D01*
X0077980Y0286187D01*
X0078135Y0286156D01*
X0078290Y0286120D01*
X0078443Y0286081D01*
X0078595Y0286038D01*
X0078746Y0285991D01*
X0078896Y0285940D01*
X0079045Y0285885D01*
X0079192Y0285827D01*
X0079338Y0285765D01*
X0079482Y0285700D01*
X0079624Y0285630D01*
X0079765Y0285558D01*
X0079904Y0285481D01*
X0080040Y0285402D01*
X0080175Y0285318D01*
X0080308Y0285232D01*
X0080438Y0285142D01*
X0080566Y0285049D01*
X0080692Y0284953D01*
X0080815Y0284853D01*
X0080936Y0284751D01*
X0081054Y0284646D01*
X0081169Y0284537D01*
X0081282Y0284426D01*
X0081392Y0284312D01*
X0081499Y0284195D01*
X0081603Y0284076D01*
X0081704Y0283954D01*
X0081801Y0283829D01*
X0081896Y0283702D01*
X0081987Y0283573D01*
X0082076Y0283442D01*
X0082160Y0283308D01*
X0082242Y0283172D01*
X0082320Y0283035D01*
X0082394Y0282895D01*
X0082465Y0282753D01*
X0082533Y0282610D01*
X0082597Y0282465D01*
X0082657Y0282319D01*
X0082713Y0282171D01*
X0082766Y0282022D01*
X0082815Y0281871D01*
X0082860Y0281719D01*
X0082901Y0281566D01*
X0082939Y0281413D01*
X0082972Y0281258D01*
X0083002Y0281102D01*
X0083028Y0280946D01*
X0083049Y0280789D01*
X0083067Y0280632D01*
X0083081Y0280474D01*
X0083091Y0280316D01*
X0083097Y0280158D01*
X0083099Y0280000D01*
X0083097Y0279842D01*
X0083091Y0279684D01*
X0083081Y0279526D01*
X0083067Y0279368D01*
X0083049Y0279211D01*
X0083028Y0279054D01*
X0083002Y0278898D01*
X0082972Y0278742D01*
X0082939Y0278587D01*
X0082901Y0278434D01*
X0082860Y0278281D01*
X0082815Y0278129D01*
X0082766Y0277978D01*
X0082713Y0277829D01*
X0082657Y0277681D01*
X0082597Y0277535D01*
X0082533Y0277390D01*
X0082465Y0277247D01*
X0082394Y0277105D01*
X0082320Y0276965D01*
X0082242Y0276828D01*
X0082160Y0276692D01*
X0082076Y0276558D01*
X0081987Y0276427D01*
X0081896Y0276298D01*
X0081801Y0276171D01*
X0081704Y0276046D01*
X0081603Y0275924D01*
X0081499Y0275805D01*
X0081392Y0275688D01*
X0081282Y0275574D01*
X0081169Y0275463D01*
X0081054Y0275354D01*
X0080936Y0275249D01*
X0080815Y0275147D01*
X0080692Y0275047D01*
X0080566Y0274951D01*
X0080438Y0274858D01*
X0080308Y0274768D01*
X0080175Y0274682D01*
X0080040Y0274598D01*
X0079904Y0274519D01*
X0079765Y0274442D01*
X0079624Y0274370D01*
X0079482Y0274300D01*
X0079338Y0274235D01*
X0079192Y0274173D01*
X0079045Y0274115D01*
X0078896Y0274060D01*
X0078746Y0274009D01*
X0078595Y0273962D01*
X0078443Y0273919D01*
X0078290Y0273880D01*
X0078135Y0273844D01*
X0077980Y0273813D01*
X0077824Y0273785D01*
X0077668Y0273761D01*
X0077511Y0273741D01*
X0077353Y0273725D01*
X0077196Y0273713D01*
X0077037Y0273705D01*
X0076879Y0273701D01*
X0076721Y0273701D01*
X0076563Y0273705D01*
X0076404Y0273713D01*
X0076247Y0273725D01*
X0076089Y0273741D01*
X0075932Y0273761D01*
X0075776Y0273785D01*
X0075620Y0273813D01*
X0075465Y0273844D01*
X0075310Y0273880D01*
X0075157Y0273919D01*
X0075005Y0273962D01*
X0074854Y0274009D01*
X0074704Y0274060D01*
X0074555Y0274115D01*
X0074408Y0274173D01*
X0074262Y0274235D01*
X0074118Y0274300D01*
X0073976Y0274370D01*
X0073835Y0274442D01*
X0073696Y0274519D01*
X0073560Y0274598D01*
X0073425Y0274682D01*
X0073292Y0274768D01*
X0073162Y0274858D01*
X0073034Y0274951D01*
X0072908Y0275047D01*
X0072785Y0275147D01*
X0072664Y0275249D01*
X0072546Y0275354D01*
X0072431Y0275463D01*
X0072318Y0275574D01*
X0072208Y0275688D01*
X0072101Y0275805D01*
X0071997Y0275924D01*
X0071896Y0276046D01*
X0071799Y0276171D01*
X0071704Y0276298D01*
X0071613Y0276427D01*
X0071524Y0276558D01*
X0071440Y0276692D01*
X0071358Y0276828D01*
X0071280Y0276965D01*
X0071206Y0277105D01*
X0071135Y0277247D01*
X0071067Y0277390D01*
X0071003Y0277535D01*
X0070943Y0277681D01*
X0070887Y0277829D01*
X0070834Y0277978D01*
X0070785Y0278129D01*
X0070740Y0278281D01*
X0070699Y0278434D01*
X0070661Y0278587D01*
X0070628Y0278742D01*
X0070598Y0278898D01*
X0070572Y0279054D01*
X0070551Y0279211D01*
X0070533Y0279368D01*
X0070519Y0279526D01*
X0070509Y0279684D01*
X0070503Y0279842D01*
X0070501Y0280000D01*
X0350501Y0280000D02*
X0350503Y0280158D01*
X0350509Y0280316D01*
X0350519Y0280474D01*
X0350533Y0280632D01*
X0350551Y0280789D01*
X0350572Y0280946D01*
X0350598Y0281102D01*
X0350628Y0281258D01*
X0350661Y0281413D01*
X0350699Y0281566D01*
X0350740Y0281719D01*
X0350785Y0281871D01*
X0350834Y0282022D01*
X0350887Y0282171D01*
X0350943Y0282319D01*
X0351003Y0282465D01*
X0351067Y0282610D01*
X0351135Y0282753D01*
X0351206Y0282895D01*
X0351280Y0283035D01*
X0351358Y0283172D01*
X0351440Y0283308D01*
X0351524Y0283442D01*
X0351613Y0283573D01*
X0351704Y0283702D01*
X0351799Y0283829D01*
X0351896Y0283954D01*
X0351997Y0284076D01*
X0352101Y0284195D01*
X0352208Y0284312D01*
X0352318Y0284426D01*
X0352431Y0284537D01*
X0352546Y0284646D01*
X0352664Y0284751D01*
X0352785Y0284853D01*
X0352908Y0284953D01*
X0353034Y0285049D01*
X0353162Y0285142D01*
X0353292Y0285232D01*
X0353425Y0285318D01*
X0353560Y0285402D01*
X0353696Y0285481D01*
X0353835Y0285558D01*
X0353976Y0285630D01*
X0354118Y0285700D01*
X0354262Y0285765D01*
X0354408Y0285827D01*
X0354555Y0285885D01*
X0354704Y0285940D01*
X0354854Y0285991D01*
X0355005Y0286038D01*
X0355157Y0286081D01*
X0355310Y0286120D01*
X0355465Y0286156D01*
X0355620Y0286187D01*
X0355776Y0286215D01*
X0355932Y0286239D01*
X0356089Y0286259D01*
X0356247Y0286275D01*
X0356404Y0286287D01*
X0356563Y0286295D01*
X0356721Y0286299D01*
X0356879Y0286299D01*
X0357037Y0286295D01*
X0357196Y0286287D01*
X0357353Y0286275D01*
X0357511Y0286259D01*
X0357668Y0286239D01*
X0357824Y0286215D01*
X0357980Y0286187D01*
X0358135Y0286156D01*
X0358290Y0286120D01*
X0358443Y0286081D01*
X0358595Y0286038D01*
X0358746Y0285991D01*
X0358896Y0285940D01*
X0359045Y0285885D01*
X0359192Y0285827D01*
X0359338Y0285765D01*
X0359482Y0285700D01*
X0359624Y0285630D01*
X0359765Y0285558D01*
X0359904Y0285481D01*
X0360040Y0285402D01*
X0360175Y0285318D01*
X0360308Y0285232D01*
X0360438Y0285142D01*
X0360566Y0285049D01*
X0360692Y0284953D01*
X0360815Y0284853D01*
X0360936Y0284751D01*
X0361054Y0284646D01*
X0361169Y0284537D01*
X0361282Y0284426D01*
X0361392Y0284312D01*
X0361499Y0284195D01*
X0361603Y0284076D01*
X0361704Y0283954D01*
X0361801Y0283829D01*
X0361896Y0283702D01*
X0361987Y0283573D01*
X0362076Y0283442D01*
X0362160Y0283308D01*
X0362242Y0283172D01*
X0362320Y0283035D01*
X0362394Y0282895D01*
X0362465Y0282753D01*
X0362533Y0282610D01*
X0362597Y0282465D01*
X0362657Y0282319D01*
X0362713Y0282171D01*
X0362766Y0282022D01*
X0362815Y0281871D01*
X0362860Y0281719D01*
X0362901Y0281566D01*
X0362939Y0281413D01*
X0362972Y0281258D01*
X0363002Y0281102D01*
X0363028Y0280946D01*
X0363049Y0280789D01*
X0363067Y0280632D01*
X0363081Y0280474D01*
X0363091Y0280316D01*
X0363097Y0280158D01*
X0363099Y0280000D01*
X0363097Y0279842D01*
X0363091Y0279684D01*
X0363081Y0279526D01*
X0363067Y0279368D01*
X0363049Y0279211D01*
X0363028Y0279054D01*
X0363002Y0278898D01*
X0362972Y0278742D01*
X0362939Y0278587D01*
X0362901Y0278434D01*
X0362860Y0278281D01*
X0362815Y0278129D01*
X0362766Y0277978D01*
X0362713Y0277829D01*
X0362657Y0277681D01*
X0362597Y0277535D01*
X0362533Y0277390D01*
X0362465Y0277247D01*
X0362394Y0277105D01*
X0362320Y0276965D01*
X0362242Y0276828D01*
X0362160Y0276692D01*
X0362076Y0276558D01*
X0361987Y0276427D01*
X0361896Y0276298D01*
X0361801Y0276171D01*
X0361704Y0276046D01*
X0361603Y0275924D01*
X0361499Y0275805D01*
X0361392Y0275688D01*
X0361282Y0275574D01*
X0361169Y0275463D01*
X0361054Y0275354D01*
X0360936Y0275249D01*
X0360815Y0275147D01*
X0360692Y0275047D01*
X0360566Y0274951D01*
X0360438Y0274858D01*
X0360308Y0274768D01*
X0360175Y0274682D01*
X0360040Y0274598D01*
X0359904Y0274519D01*
X0359765Y0274442D01*
X0359624Y0274370D01*
X0359482Y0274300D01*
X0359338Y0274235D01*
X0359192Y0274173D01*
X0359045Y0274115D01*
X0358896Y0274060D01*
X0358746Y0274009D01*
X0358595Y0273962D01*
X0358443Y0273919D01*
X0358290Y0273880D01*
X0358135Y0273844D01*
X0357980Y0273813D01*
X0357824Y0273785D01*
X0357668Y0273761D01*
X0357511Y0273741D01*
X0357353Y0273725D01*
X0357196Y0273713D01*
X0357037Y0273705D01*
X0356879Y0273701D01*
X0356721Y0273701D01*
X0356563Y0273705D01*
X0356404Y0273713D01*
X0356247Y0273725D01*
X0356089Y0273741D01*
X0355932Y0273761D01*
X0355776Y0273785D01*
X0355620Y0273813D01*
X0355465Y0273844D01*
X0355310Y0273880D01*
X0355157Y0273919D01*
X0355005Y0273962D01*
X0354854Y0274009D01*
X0354704Y0274060D01*
X0354555Y0274115D01*
X0354408Y0274173D01*
X0354262Y0274235D01*
X0354118Y0274300D01*
X0353976Y0274370D01*
X0353835Y0274442D01*
X0353696Y0274519D01*
X0353560Y0274598D01*
X0353425Y0274682D01*
X0353292Y0274768D01*
X0353162Y0274858D01*
X0353034Y0274951D01*
X0352908Y0275047D01*
X0352785Y0275147D01*
X0352664Y0275249D01*
X0352546Y0275354D01*
X0352431Y0275463D01*
X0352318Y0275574D01*
X0352208Y0275688D01*
X0352101Y0275805D01*
X0351997Y0275924D01*
X0351896Y0276046D01*
X0351799Y0276171D01*
X0351704Y0276298D01*
X0351613Y0276427D01*
X0351524Y0276558D01*
X0351440Y0276692D01*
X0351358Y0276828D01*
X0351280Y0276965D01*
X0351206Y0277105D01*
X0351135Y0277247D01*
X0351067Y0277390D01*
X0351003Y0277535D01*
X0350943Y0277681D01*
X0350887Y0277829D01*
X0350834Y0277978D01*
X0350785Y0278129D01*
X0350740Y0278281D01*
X0350699Y0278434D01*
X0350661Y0278587D01*
X0350628Y0278742D01*
X0350598Y0278898D01*
X0350572Y0279054D01*
X0350551Y0279211D01*
X0350533Y0279368D01*
X0350519Y0279526D01*
X0350509Y0279684D01*
X0350503Y0279842D01*
X0350501Y0280000D01*
X0350501Y0060000D02*
X0350503Y0060158D01*
X0350509Y0060316D01*
X0350519Y0060474D01*
X0350533Y0060632D01*
X0350551Y0060789D01*
X0350572Y0060946D01*
X0350598Y0061102D01*
X0350628Y0061258D01*
X0350661Y0061413D01*
X0350699Y0061566D01*
X0350740Y0061719D01*
X0350785Y0061871D01*
X0350834Y0062022D01*
X0350887Y0062171D01*
X0350943Y0062319D01*
X0351003Y0062465D01*
X0351067Y0062610D01*
X0351135Y0062753D01*
X0351206Y0062895D01*
X0351280Y0063035D01*
X0351358Y0063172D01*
X0351440Y0063308D01*
X0351524Y0063442D01*
X0351613Y0063573D01*
X0351704Y0063702D01*
X0351799Y0063829D01*
X0351896Y0063954D01*
X0351997Y0064076D01*
X0352101Y0064195D01*
X0352208Y0064312D01*
X0352318Y0064426D01*
X0352431Y0064537D01*
X0352546Y0064646D01*
X0352664Y0064751D01*
X0352785Y0064853D01*
X0352908Y0064953D01*
X0353034Y0065049D01*
X0353162Y0065142D01*
X0353292Y0065232D01*
X0353425Y0065318D01*
X0353560Y0065402D01*
X0353696Y0065481D01*
X0353835Y0065558D01*
X0353976Y0065630D01*
X0354118Y0065700D01*
X0354262Y0065765D01*
X0354408Y0065827D01*
X0354555Y0065885D01*
X0354704Y0065940D01*
X0354854Y0065991D01*
X0355005Y0066038D01*
X0355157Y0066081D01*
X0355310Y0066120D01*
X0355465Y0066156D01*
X0355620Y0066187D01*
X0355776Y0066215D01*
X0355932Y0066239D01*
X0356089Y0066259D01*
X0356247Y0066275D01*
X0356404Y0066287D01*
X0356563Y0066295D01*
X0356721Y0066299D01*
X0356879Y0066299D01*
X0357037Y0066295D01*
X0357196Y0066287D01*
X0357353Y0066275D01*
X0357511Y0066259D01*
X0357668Y0066239D01*
X0357824Y0066215D01*
X0357980Y0066187D01*
X0358135Y0066156D01*
X0358290Y0066120D01*
X0358443Y0066081D01*
X0358595Y0066038D01*
X0358746Y0065991D01*
X0358896Y0065940D01*
X0359045Y0065885D01*
X0359192Y0065827D01*
X0359338Y0065765D01*
X0359482Y0065700D01*
X0359624Y0065630D01*
X0359765Y0065558D01*
X0359904Y0065481D01*
X0360040Y0065402D01*
X0360175Y0065318D01*
X0360308Y0065232D01*
X0360438Y0065142D01*
X0360566Y0065049D01*
X0360692Y0064953D01*
X0360815Y0064853D01*
X0360936Y0064751D01*
X0361054Y0064646D01*
X0361169Y0064537D01*
X0361282Y0064426D01*
X0361392Y0064312D01*
X0361499Y0064195D01*
X0361603Y0064076D01*
X0361704Y0063954D01*
X0361801Y0063829D01*
X0361896Y0063702D01*
X0361987Y0063573D01*
X0362076Y0063442D01*
X0362160Y0063308D01*
X0362242Y0063172D01*
X0362320Y0063035D01*
X0362394Y0062895D01*
X0362465Y0062753D01*
X0362533Y0062610D01*
X0362597Y0062465D01*
X0362657Y0062319D01*
X0362713Y0062171D01*
X0362766Y0062022D01*
X0362815Y0061871D01*
X0362860Y0061719D01*
X0362901Y0061566D01*
X0362939Y0061413D01*
X0362972Y0061258D01*
X0363002Y0061102D01*
X0363028Y0060946D01*
X0363049Y0060789D01*
X0363067Y0060632D01*
X0363081Y0060474D01*
X0363091Y0060316D01*
X0363097Y0060158D01*
X0363099Y0060000D01*
X0363097Y0059842D01*
X0363091Y0059684D01*
X0363081Y0059526D01*
X0363067Y0059368D01*
X0363049Y0059211D01*
X0363028Y0059054D01*
X0363002Y0058898D01*
X0362972Y0058742D01*
X0362939Y0058587D01*
X0362901Y0058434D01*
X0362860Y0058281D01*
X0362815Y0058129D01*
X0362766Y0057978D01*
X0362713Y0057829D01*
X0362657Y0057681D01*
X0362597Y0057535D01*
X0362533Y0057390D01*
X0362465Y0057247D01*
X0362394Y0057105D01*
X0362320Y0056965D01*
X0362242Y0056828D01*
X0362160Y0056692D01*
X0362076Y0056558D01*
X0361987Y0056427D01*
X0361896Y0056298D01*
X0361801Y0056171D01*
X0361704Y0056046D01*
X0361603Y0055924D01*
X0361499Y0055805D01*
X0361392Y0055688D01*
X0361282Y0055574D01*
X0361169Y0055463D01*
X0361054Y0055354D01*
X0360936Y0055249D01*
X0360815Y0055147D01*
X0360692Y0055047D01*
X0360566Y0054951D01*
X0360438Y0054858D01*
X0360308Y0054768D01*
X0360175Y0054682D01*
X0360040Y0054598D01*
X0359904Y0054519D01*
X0359765Y0054442D01*
X0359624Y0054370D01*
X0359482Y0054300D01*
X0359338Y0054235D01*
X0359192Y0054173D01*
X0359045Y0054115D01*
X0358896Y0054060D01*
X0358746Y0054009D01*
X0358595Y0053962D01*
X0358443Y0053919D01*
X0358290Y0053880D01*
X0358135Y0053844D01*
X0357980Y0053813D01*
X0357824Y0053785D01*
X0357668Y0053761D01*
X0357511Y0053741D01*
X0357353Y0053725D01*
X0357196Y0053713D01*
X0357037Y0053705D01*
X0356879Y0053701D01*
X0356721Y0053701D01*
X0356563Y0053705D01*
X0356404Y0053713D01*
X0356247Y0053725D01*
X0356089Y0053741D01*
X0355932Y0053761D01*
X0355776Y0053785D01*
X0355620Y0053813D01*
X0355465Y0053844D01*
X0355310Y0053880D01*
X0355157Y0053919D01*
X0355005Y0053962D01*
X0354854Y0054009D01*
X0354704Y0054060D01*
X0354555Y0054115D01*
X0354408Y0054173D01*
X0354262Y0054235D01*
X0354118Y0054300D01*
X0353976Y0054370D01*
X0353835Y0054442D01*
X0353696Y0054519D01*
X0353560Y0054598D01*
X0353425Y0054682D01*
X0353292Y0054768D01*
X0353162Y0054858D01*
X0353034Y0054951D01*
X0352908Y0055047D01*
X0352785Y0055147D01*
X0352664Y0055249D01*
X0352546Y0055354D01*
X0352431Y0055463D01*
X0352318Y0055574D01*
X0352208Y0055688D01*
X0352101Y0055805D01*
X0351997Y0055924D01*
X0351896Y0056046D01*
X0351799Y0056171D01*
X0351704Y0056298D01*
X0351613Y0056427D01*
X0351524Y0056558D01*
X0351440Y0056692D01*
X0351358Y0056828D01*
X0351280Y0056965D01*
X0351206Y0057105D01*
X0351135Y0057247D01*
X0351067Y0057390D01*
X0351003Y0057535D01*
X0350943Y0057681D01*
X0350887Y0057829D01*
X0350834Y0057978D01*
X0350785Y0058129D01*
X0350740Y0058281D01*
X0350699Y0058434D01*
X0350661Y0058587D01*
X0350628Y0058742D01*
X0350598Y0058898D01*
X0350572Y0059054D01*
X0350551Y0059211D01*
X0350533Y0059368D01*
X0350519Y0059526D01*
X0350509Y0059684D01*
X0350503Y0059842D01*
X0350501Y0060000D01*
M02*
